<svg clip-rule="evenodd" fill-rule="evenodd" height="512" image-rendering="optimizeQuality" shape-rendering="geometricPrecision" text-rendering="geometricPrecision" viewBox="0 0 512 512" width="512" xmlns="http://www.w3.org/2000/svg" xmlns:xodm="http://www.corel.com/coreldraw/odm/2003"><g id="Layer_x0020_1"><path d="m75.33 172.79c3.17-3.17 8.36-3.17 11.53 0l46.09 46.09c3.17 3.17 3.17 8.35 0 11.52s-8.36 3.17-11.53 0l-46.09-46.09c-3.17-3.17-3.17-8.35 0-11.52zm329.65 180.66c0 15.43-2.35 30.3-6.71 44.3h85.64c4.48 0 8.14 3.66 8.14 8.15 0 5.2-2.94 8.15-8.14 8.15h-455.82c-5.28 0-8.15-3.03-8.15-8.15 0-4.48 3.67-8.15 8.15-8.15h85.64c-4.36-14-6.71-28.87-6.71-44.3 0-82.28 66.7-148.98 148.98-148.98s148.98 66.7 148.98 148.98zm-148.98-255.5c4.48 0 8.15 3.67 8.15 8.15v65.18c0 4.48-3.67 8.15-8.15 8.15s-8.15-3.66-8.15-8.15v-65.18c0-4.48 3.67-8.15 8.15-8.15zm-255.5 255.5c0-4.48 3.66-8.15 8.15-8.15h65.18c4.48 0 8.15 3.67 8.15 8.15 0 4.49-3.67 8.15-8.15 8.15h-65.18c-4.48 0-8.15-3.66-8.15-8.15zm378.55-123.05c-3.17-3.17-3.17-8.35 0-11.52l46.09-46.09c3.17-3.17 8.36-3.17 11.53 0s3.17 8.35 0 11.52l-46.09 46.09c-3.17 3.17-8.36 3.17-11.53 0zm50.97 123.05c0-4.48 3.67-8.15 8.15-8.15h65.18c4.48 0 8.15 3.67 8.15 8.15 0 4.49-3.66 8.15-8.15 8.15h-65.18c-4.48 0-8.15-3.66-8.15-8.15z"/></g></svg>