<svg height="512" viewBox="0 0 96 96" width="512" xmlns="http://www.w3.org/2000/svg"><g id="Beads"><path d="m48.87 50.32a1 1 0 0 0 .87-.51 37.87 37.87 0 0 0 4.84-17.9 1 1 0 0 0 -1-1 1 1 0 0 0 -1 1 35.82 35.82 0 0 1 -4.58 16.91 1 1 0 0 0 .87 1.5z"/><path d="m94.25 19.9a3.29 3.29 0 0 0 -.17-4.6l-2.24-2.14a4.91 4.91 0 0 0 -5.28-.95 3.76 3.76 0 0 0 -4-3.24c-5.44.34-4.57.27-5.09.36a4 4 0 0 0 -3.87-5h-23.3a11.44 11.44 0 0 0 -5.76 1.55l-15.62 9.12a12.61 12.61 0 0 0 -3.92 3.55l-24.83 34.45a1 1 0 0 0 1.63 1.13l24.8-34.41a10.57 10.57 0 0 1 3.33-3l15.61-9.08a9.49 9.49 0 0 1 4.76-1.28h23.33a2 2 0 0 1 1.84 2.78l-.2.46a8.7 8.7 0 0 1 -8 5.25h-7.87a9.06 9.06 0 0 0 -9 9 14.51 14.51 0 0 1 -14.54 14.54h-2.86a1 1 0 1 0 0 2h2.88a16.51 16.51 0 0 0 16.47-16.49 7.05 7.05 0 0 1 7-7h5.45a5.65 5.65 0 0 0 .55 9.63h-.47a5.67 5.67 0 0 0 -2.41 10.63h-.89a5.67 5.67 0 0 0 -2.38 10.65h-.59a5.67 5.67 0 0 0 -3.32 10h-12.48a8.11 8.11 0 0 0 -3.71.91l-8.44-6a1 1 0 1 0 -1.16 1.63l7.85 5.65a10.3 10.3 0 0 0 -2 2.54l-3.86-2.76a1 1 0 0 0 -1.16 1.63l4 2.82-5.87 9.25a1 1 0 0 0 1.69 1.07l7.49-11.8a6.12 6.12 0 0 1 5.19-2.86h15.57v.17l.16 3.16a3.8 3.8 0 0 0 3 3.53 3.78 3.78 0 0 0 2.3 4.43l2.94 1.16a3.68 3.68 0 0 0 2.89-.07v5.3h-.89a1 1 0 0 0 0 2h.91v2.13a3.93 3.93 0 0 0 -3 3.82v5.15a1 1 0 0 0 1 1h6a1 1 0 0 0 1-1v-5.18a3.91 3.91 0 0 0 -3-3.8v-2.15h.91a1 1 0 0 0 0-2h-.91v-3.54c.94.3 1.31.1 4.19-.53a5.76 5.76 0 0 0 4-3.29 3.8 3.8 0 0 0 5.3-.54l2-2.44a3.79 3.79 0 0 0 .59-3.83 3.78 3.78 0 0 0 2.46-3.24l.3-3.13a3.82 3.82 0 0 0 -.76-2.59c.08 0 .17 0 .25-.09a3.81 3.81 0 0 0 2-3l.27-3.16a3.77 3.77 0 0 0 -.76-2.59 3.78 3.78 0 0 0 1.88-3c.26-3 .59-4.13-.34-5.55a3.83 3.83 0 0 0 1.74-2.87c.27-3.24.49-4-.17-5.23a3.77 3.77 0 0 0 1.07-2.33l.27-3.17a3.81 3.81 0 0 0 -1.75-3.52zm-21.56 65.59v4.15h-4v-4.15a2 2 0 0 1 4 0zm20.61-58.06a4.2 4.2 0 0 0 -3.21-.55 2.72 2.72 0 0 1 -.35-1.81l.39-2.38a1.8 1.8 0 0 1 2.4-1.39l.3.11a1.79 1.79 0 0 1 1.17 1.84c-.27 3.34-.18 3.59-.7 4.18zm-5.66 8.3a3.79 3.79 0 0 0 -1.78 2.62l-.39 2.38a4.65 4.65 0 0 0 .93 3.62 3.73 3.73 0 0 0 -1.93 2.71l-.4 2.38a4.7 4.7 0 0 0 .93 3.62 4 4 0 0 0 -.47.21 3.84 3.84 0 0 0 -1.84 2.67c-.38 2.31-.76 3.48 0 5.07a3.9 3.9 0 0 0 -1.28.86c-1.56 1.61-2.28 2.17-2.72 3.43a3.24 3.24 0 0 0 -2.57-.3c-3 .9-3.53 1-4.42 1.62a3.79 3.79 0 0 0 -1.63-1.54c-2.06-1-2.6-1.37-3.66-1.49a13.84 13.84 0 0 0 .13-2.85 4.56 4.56 0 0 0 -.08-.9h3.45a6.33 6.33 0 0 0 4.39-10.84 6.31 6.31 0 0 0 3-10.61 6.33 6.33 0 0 0 3.2-10.78 6.31 6.31 0 0 0 2.9-10.61 4.46 4.46 0 0 0 .92-.41 2.44 2.44 0 0 0 .42.64c1.85 2.07 2.45 3 4.08 3.6-.63.88-.62 1.34-1 4a4.65 4.65 0 0 0 .57 3.1 3.76 3.76 0 0 0 -1.09 2.08l-.39 2.38a4.67 4.67 0 0 0 .73 3.34zm.82-21.92a2.93 2.93 0 0 1 2 .8l2.24 2.14a1.3 1.3 0 0 1 -.41 2.16 3.77 3.77 0 0 1 -4.2-1l-1.86-2.08a.86.86 0 0 1 .19-1.3 3.55 3.55 0 0 1 2.04-.72zm-10.38-2.55 4.63-.3a1.79 1.79 0 0 1 1.74 2.51l-.1.21a2.55 2.55 0 0 1 -2.35 1.5h-5a1.45 1.45 0 0 1 -1.41-1.79 2.74 2.74 0 0 1 2.49-2.13zm-4.4 3.46a3.28 3.28 0 0 0 .33.74l-1.63.1a11.09 11.09 0 0 0 1.3-.84zm-5.8 3.11 10.86-.65a4.33 4.33 0 1 1 0 8.64l-10.86-.64a3.68 3.68 0 0 1 0-7.35zm-2.83 10.68 10.86-.65a4.33 4.33 0 1 1 0 8.64l-10.86-.64a3.68 3.68 0 0 1 0-7.35zm-3.31 10.68c10.37-.62 10.92-.65 11.13-.65a4.32 4.32 0 1 1 -.26 8.64l-10.87-.64a3.68 3.68 0 0 1 0-7.35zm-3 10.68c10.26-.61 10.92-.65 11.13-.65a4.32 4.32 0 1 1 -.27 8.64l-10.86-.64a3.68 3.68 0 0 1 0-7.35zm1.78 13.22c-.18-3.5-.17-3.15-.17-3.22h4c.17.55.12.69 0 3.26a1.79 1.79 0 0 1 -.18.73 4.6 4.6 0 0 0 -1.65 1 1.94 1.94 0 0 1 -1.96-1.77zm7 7.36-2.94-1.16a1.8 1.8 0 0 1 -.9-2.58 3.5 3.5 0 0 0 1.78-1.11c1-.15 1.42.18 3.71 1.29a1.81 1.81 0 0 1 .65 2.7l-.19.26a1.82 1.82 0 0 1 -2.08.6zm10.83-2.1a3.76 3.76 0 0 1 -2.91 3.18l-2.73.6a.86.86 0 0 1 -1-.81 7.63 7.63 0 0 1 0-1 3.76 3.76 0 0 0 .45-1.32 2.63 2.63 0 0 1 1.58-1.2l3-.9a1.31 1.31 0 0 1 1.64 1.45zm7.31-2.42-2 2.44a1.78 1.78 0 0 1 -1.6.64c-1.79-.21-2.22-2.68-.93-4l1.68-1.74a1.82 1.82 0 0 1 2.77.22l.18.26a1.8 1.8 0 0 1 -.07 2.18zm2.59-6a1.78 1.78 0 0 1 -1.72 1.65 3.82 3.82 0 0 0 -1.63-.79 2.65 2.65 0 0 1 -.65-2.19l.4-2.38a1.8 1.8 0 0 1 2.39-1.4l.31.11a1.81 1.81 0 0 1 1.17 1.85zm1.77-8.87a1.8 1.8 0 0 1 -2.68 1.42 2.65 2.65 0 0 1 -1.32-2.75l.39-2.38a1.8 1.8 0 0 1 2.4-1.4l.3.11a1.83 1.83 0 0 1 1.21 1.94zm1.39-8.71a1.8 1.8 0 0 1 -2.67 1.42 2.66 2.66 0 0 1 -1.33-2.75l.39-2.38a1.76 1.76 0 0 1 1.5-1.47 3.78 3.78 0 0 0 1.59.4 1.79 1.79 0 0 1 .79 1.62zm1.42-8.35a1.76 1.76 0 0 1 -1.46 1.61 3.87 3.87 0 0 0 -1.5-.38 2.67 2.67 0 0 1 -1-2.56l.4-2.38a1.8 1.8 0 0 1 2.39-1.4l.3.11a1.81 1.81 0 0 1 1.18 1.84z"/></g></svg>